<?xml version="1.0" standalone="no"?>
<!DOCTYPE svg PUBLIC "-//W3C//DTD SVG 20010904//EN"
 "http://www.w3.org/TR/2001/REC-SVG-20010904/DTD/svg10.dtd">
<svg version="1.0" xmlns="http://www.w3.org/2000/svg"
 width="64.000000pt" height="64.000000pt" viewBox="0 0 64.000000 64.000000"
 preserveAspectRatio="xMidYMid meet">

<g transform="translate(0.000000,64.000000) scale(0.100000,-0.100000)"
fill="#000000" stroke="none">
<path d="M217 616 c-136 -49 -212 -165 -206 -313 7 -135 82 -238 207 -281 49
-17 38 1 -15 22 -231 95 -243 431 -19 541 134 65 304 25 378 -90 28 -43 46
-47 21 -4 -27 47 -90 96 -150 119 -63 23 -159 26 -216 6z"/>
<path d="M225 587 c-72 -28 -128 -77 -164 -144 -18 -35 -31 -117 -24 -157 8
-54 19 -44 14 15 -10 144 98 271 242 286 195 20 345 -172 282 -358 -30 -86
-119 -165 -195 -171 -35 -3 -35 -3 -38 43 -2 38 2 52 23 78 22 25 34 31 66 31
l39 0 0 81 c0 68 2 80 15 75 8 -3 15 -4 15 -2 0 5 -148 128 -167 139 -15 9
-53 -9 -53 -25 0 -9 3 -9 12 0 20 20 38 14 98 -35 l59 -48 0 -87 1 -88 -31 0
-32 0 6 50 c5 40 3 50 -8 50 -10 0 -15 11 -15 31 0 24 -4 30 -17 27 -11 -2
-19 -14 -21 -31 -4 -35 -20 -35 -24 0 -2 17 -10 29 -20 31 -14 3 -18 -3 -18
-27 0 -20 -5 -31 -15 -31 -11 0 -13 -10 -8 -50 l6 -50 -32 0 -31 0 0 85 c0 83
1 86 33 115 17 16 28 29 22 30 -5 0 -32 -21 -60 -45 -27 -25 -42 -42 -32 -39
15 6 17 -2 17 -75 l0 -81 39 0 c58 0 91 -42 91 -115 0 -85 34 -103 133 -69 66
22 134 87 168 159 24 49 29 74 29 132 0 73 -6 103 -20 103 -5 0 -4 -17 2 -37
32 -117 -39 -271 -152 -328 -107 -54 -150 -41 -150 46 0 66 18 63 22 -3 3 -49
5 -53 30 -56 60 -7 160 58 203 132 110 188 -27 428 -243 425 -37 0 -81 -6 -97
-12z m62 -249 c-3 -8 -6 -5 -6 6 -1 11 2 17 5 13 3 -3 4 -12 1 -19z m70 0 c-3
-8 -6 -5 -6 6 -1 11 2 17 5 13 3 -3 4 -12 1 -19z m1 -35 c-21 -2 -55 -2 -75 0
-21 2 -4 4 37 4 41 0 58 -2 38 -4z m10 -65 l-3 -43 -45 0 -45 0 -3 43 -3 42
51 0 51 0 -3 -42z m-36 -70 c-9 -9 -15 -9 -24 0 -9 9 -7 12 12 12 19 0 21 -3
12 -12z"/>
<path d="M290 260 c0 -5 14 -10 30 -10 17 0 30 5 30 10 0 6 -13 10 -30 10 -16
0 -30 -4 -30 -10z"/>
<path d="M290 230 c0 -5 14 -10 30 -10 17 0 30 5 30 10 0 6 -13 10 -30 10 -16
0 -30 -4 -30 -10z"/>
<path d="M61 203 c-1 -22 65 -98 109 -124 52 -31 90 -44 90 -31 0 5 -18 14
-40 21 -40 12 -109 71 -142 121 -10 14 -17 20 -17 13z"/>
</g>
</svg>
