<?xml version="1.0" standalone="no"?>
<!DOCTYPE svg PUBLIC "-//W3C//DTD SVG 20010904//EN"
 "http://www.w3.org/TR/2001/REC-SVG-20010904/DTD/svg10.dtd">
<svg version="1.0" xmlns="http://www.w3.org/2000/svg"
 width="64.000000pt" height="64.000000pt" viewBox="0 0 64.000000 64.000000"
 preserveAspectRatio="xMidYMid meet">

<g transform="translate(0.000000,64.000000) scale(0.100000,-0.100000)"
fill="#000000" stroke="none">
<path d="M41 622 c-5 -10 -10 -98 -10 -194 1 -149 -2 -180 -16 -202 -18 -28
-15 -66 9 -88 8 -8 11 -27 8 -54 -5 -48 11 -84 37 -84 29 0 43 25 40 73 -2 28
3 52 14 67 21 31 22 68 1 91 -13 15 -16 46 -14 199 0 125 -3 186 -11 196 -16
20 -46 17 -58 -4z m57 -398 c24 -17 29 -53 10 -72 -19 -19 -66 -15 -78 7 -14
28 -13 38 10 61 24 24 29 24 58 4z"/>
<path d="M210 625 c-7 -8 -10 -25 -6 -38 4 -17 0 -30 -14 -42 -24 -22 -26 -62
-4 -86 13 -15 16 -51 17 -230 2 -190 4 -213 20 -223 12 -8 22 -8 35 0 15 10
17 33 19 222 1 175 4 215 17 234 21 30 20 50 -3 80 -13 15 -18 33 -14 46 11
42 -40 70 -67 37z m62 -92 c22 -20 23 -46 2 -67 -30 -31 -84 -9 -84 34 0 23
26 50 47 50 9 0 25 -7 35 -17z"/>
<path d="M382 628 c-7 -7 -12 -45 -12 -99 0 -65 -4 -90 -15 -99 -17 -14 -21
-70 -5 -70 6 0 10 11 10 24 0 43 43 69 78 47 8 -5 17 -24 22 -42 6 -29 8 -31
15 -15 6 13 3 29 -8 48 -12 21 -17 53 -17 112 0 83 -9 106 -40 106 -9 0 -21
-5 -28 -12z"/>
<path d="M382 408 c-7 -7 -12 -40 -12 -80 l0 -67 -28 5 c-46 9 -55 -12 -43
-101 19 -136 47 -165 159 -165 74 0 116 13 142 45 23 27 2 29 -30 1 -28 -23
-40 -26 -107 -26 -68 0 -77 2 -102 28 -23 22 -30 42 -40 106 -12 81 -9 96 14
96 19 0 35 -32 35 -69 0 -17 4 -31 10 -31 5 0 11 52 12 123 3 100 6 122 18
122 12 0 16 -18 18 -93 3 -91 18 -126 24 -54 4 48 32 52 36 5 4 -41 18 -43 26
-3 3 17 12 30 21 30 13 0 17 -9 28 -65 3 -17 5 -16 15 8 22 53 37 26 36 -62
-1 -93 16 -98 24 -7 6 77 -3 104 -36 113 -15 3 -33 13 -41 20 -8 9 -23 12 -37
9 -12 -3 -26 -1 -30 5 -3 6 -15 9 -25 6 -17 -5 -19 1 -19 42 0 49 -13 71 -40
71 -9 0 -21 -5 -28 -12z"/>
</g>
</svg>
