<?xml version="1.0" encoding="utf-8"?>
<!-- Generator: Adobe Illustrator 25.4.1, SVG Export Plug-In . SVG Version: 6.00 Build 0)  -->
<svg version="1.1" id="GUIDE" xmlns="http://www.w3.org/2000/svg" xmlns:xlink="http://www.w3.org/1999/xlink" x="0px" y="0px"
	 width="820px" height="408.4px" viewBox="0 0 820 408.4" style="enable-background:new 0 0 820 408.4;" xml:space="preserve">
<style type="text/css">
	.st0{fill:#FFA400;stroke:#FFFFFF;stroke-miterlimit:10;}
	.st1{fill:#00A9D7;stroke:#FFFFFF;stroke-miterlimit:10;}
	.st2{fill:#6E7C7C;stroke:#FFFFFF;stroke-miterlimit:10;}
	.st3{fill:#DFDFDF;stroke:#FFFFFF;stroke-miterlimit:10;}
	.st4{fill:#1CD0BB;stroke:#FFFFFF;stroke-miterlimit:10;}
</style>
<g>
	<g>
		<g>
			<g>
				<path class="st0" d="M420,200.4L337.5,31.3c26.1-12.8,53.4-19,82.5-19V200.4z"/>
			</g>
		</g>
		<g>
			<g>
				<path class="st1" d="M420,200.4L253.9,112c19.5-36.7,46.3-62.5,83.6-80.8L420,200.4z"/>
			</g>
		</g>
		<g>
			<g>
				<path class="st2" d="M420,200.4L284.6,331c-57.7-59.8-69.8-145.6-30.8-219L420,200.4z"/>
			</g>
		</g>
		<g>
			<g>
				<path class="st3" d="M420,200.4v188.1c-54,0-97.8-18.6-135.3-57.4L420,200.4z"/>
			</g>
		</g>
		<g>
			<g>
				<path class="st4" d="M420,200.4V12.2c103.9,0,188.1,84.2,188.1,188.1S523.9,388.5,420,388.5l0,0V200.4z"/>
			</g>
		</g>
	</g>
</g>
<g>
	<path d="M493.3,202.5l1.7-2c1.3,1.2,2.6,1.9,4.1,1.9c1.9,0,3.1-1.1,3.1-2.7v0c0-1.6-1.4-2.6-3.3-2.6c-1.1,0-2.1,0.3-2.9,0.7
		l-1.7-1.1l0.5-7.7h9.5v2.5h-7.1L497,195c0.7-0.3,1.4-0.5,2.5-0.5c3.1,0,5.5,1.6,5.5,5v0c0,3.2-2.4,5.3-5.9,5.3
		C496.7,204.9,494.8,203.9,493.3,202.5z"/>
	<path d="M509,196.8L509,196.8c0-4.6,2.8-8.2,6.9-8.2c4.1,0,6.9,3.6,6.9,8.1v0c0,4.5-2.8,8.2-6.9,8.2
		C511.7,204.9,509,201.3,509,196.8z M519.9,196.8L519.9,196.8c0-3.2-1.6-5.7-4-5.7s-4,2.5-4,5.6v0c0,3.1,1.6,5.7,4,5.7
		C518.4,202.4,519.9,199.9,519.9,196.8z"/>
	<path d="M526.6,192.7L526.6,192.7c0-2.3,1.5-4.1,3.7-4.1s3.7,1.8,3.7,4v0c0,2.2-1.5,4-3.7,4C528,196.7,526.6,194.9,526.6,192.7z
		 M539.7,188.8h2.2l-6.2,8.4l-5.3,7.4h-2.2l6.2-8.4L539.7,188.8z M528.6,192.6L528.6,192.6c0,1.3,0.7,2.3,1.7,2.3
		c1.1,0,1.7-1,1.7-2.3v0c0-1.3-0.7-2.3-1.7-2.3C529.2,190.4,528.6,191.4,528.6,192.6z M536.1,200.8L536.1,200.8
		c0-2.3,1.5-4.1,3.7-4.1c2.2,0,3.7,1.8,3.7,4v0c0,2.2-1.5,4-3.7,4C537.6,204.8,536.1,203,536.1,200.8z M541.5,200.8L541.5,200.8
		c0-1.3-0.7-2.3-1.7-2.3c-1.1,0-1.7,1-1.7,2.3v0c0,1.3,0.7,2.3,1.7,2.3C540.9,203.1,541.5,202,541.5,200.8z"/>
</g>
<g>
	<path d="M350.6,306.3l-2.8,0.8l-0.6-2.3l4.3-1.4h1.9v15.9h-2.8L350.6,306.3L350.6,306.3z"/>
	<path d="M357.9,316.8l1.9-1.8c1.1,1.3,2.4,2.1,4.1,2.1c1.6,0,2.7-0.9,2.7-2.4v0c0-1.6-1.4-2.4-3.6-2.4h-1.3l-0.5-1.7l4.3-4.5h-6.8
		v-2.4h10.4v2.1l-4.4,4.5c2.4,0.3,4.6,1.5,4.6,4.4v0c0,2.9-2.2,5-5.5,5C361.2,319.6,359.3,318.5,357.9,316.8z"/>
	<path d="M373.4,307.5L373.4,307.5c0-2.3,1.5-4.1,3.7-4.1s3.7,1.8,3.7,4v0c0,2.2-1.5,4-3.7,4C374.9,311.5,373.4,309.6,373.4,307.5z
		 M386.5,303.6h2.2l-6.2,8.4l-5.3,7.4H375l6.2-8.4L386.5,303.6z M375.4,307.4L375.4,307.4c0,1.3,0.7,2.3,1.7,2.3
		c1.1,0,1.7-1,1.7-2.3v0c0-1.3-0.7-2.3-1.7-2.3C376,305.1,375.4,306.2,375.4,307.4z M382.9,315.5L382.9,315.5c0-2.3,1.5-4.1,3.7-4.1
		c2.2,0,3.7,1.8,3.7,4v0c0,2.2-1.5,4-3.7,4C384.4,319.5,382.9,317.7,382.9,315.5z M388.4,315.5L388.4,315.5c0-1.3-0.7-2.3-1.7-2.3
		c-1.1,0-1.7,1-1.7,2.3v0c0,1.3,0.7,2.3,1.7,2.3C387.7,317.8,388.4,316.8,388.4,315.5z"/>
</g>
<g>
	<path d="M273.9,223.4l5.4-4.6c2.2-1.8,3-2.8,3-4.3c0-1.6-1.1-2.5-2.5-2.5s-2.4,0.8-3.6,2.4l-2-1.6c1.5-2.1,3-3.3,5.8-3.3
		c3.1,0,5.2,1.9,5.2,4.7v0c0,2.5-1.3,3.8-4.1,6.1l-3.2,2.7h7.5v2.4h-11.4V223.4z"/>
	<path d="M289.3,217.7L289.3,217.7c0-4.6,2.8-8.2,6.9-8.2c4.1,0,6.9,3.6,6.9,8.1v0c0,4.5-2.8,8.2-6.9,8.2
		C292,225.8,289.3,222.2,289.3,217.7z M300.2,217.7L300.2,217.7c0-3.2-1.6-5.7-4-5.7c-2.4,0-4,2.5-4,5.6v0c0,3.1,1.6,5.7,4,5.7
		S300.2,220.8,300.2,217.7z"/>
	<path d="M306.8,213.7L306.8,213.7c0-2.3,1.5-4.1,3.7-4.1s3.7,1.8,3.7,4v0c0,2.2-1.5,4-3.7,4C308.3,217.7,306.8,215.9,306.8,213.7z
		 M320,209.8h2.2l-6.2,8.4l-5.3,7.4h-2.2l6.2-8.4L320,209.8z M308.9,213.6L308.9,213.6c0,1.3,0.7,2.3,1.7,2.3c1.1,0,1.7-1,1.7-2.3v0
		c0-1.3-0.7-2.3-1.7-2.3C309.5,211.3,308.9,212.4,308.9,213.6z M316.4,221.8L316.4,221.8c0-2.3,1.5-4.1,3.7-4.1c2.2,0,3.7,1.8,3.7,4
		v0c0,2.2-1.5,4-3.7,4C317.9,225.8,316.4,223.9,316.4,221.8z M321.8,221.8L321.8,221.8c0-1.3-0.7-2.3-1.7-2.3c-1.1,0-1.7,1-1.7,2.3
		v0c0,1.3,0.7,2.3,1.7,2.3C321.2,224,321.8,223,321.8,221.8z"/>
</g>
<g>
	<path d="M310.7,107.7l-2.8,0.8l-0.6-2.3l4.3-1.4h1.9v15.9h-2.8L310.7,107.7L310.7,107.7z"/>
	<path d="M318.3,113L318.3,113c0-4.6,2.8-8.2,6.9-8.2c4.1,0,6.9,3.6,6.9,8.1v0c0,4.5-2.8,8.2-6.9,8.2S318.3,117.5,318.3,113z
		 M329.2,113L329.2,113c0-3.2-1.6-5.7-4-5.7c-2.4,0-4,2.5-4,5.6v0c0,3.1,1.6,5.7,4,5.7C327.7,118.6,329.2,116.1,329.2,113z"/>
	<path d="M335.9,108.9L335.9,108.9c0-2.3,1.5-4.1,3.7-4.1s3.7,1.8,3.7,4v0c0,2.2-1.5,4-3.7,4C337.4,112.9,335.9,111.1,335.9,108.9z
		 M349,105h2.2l-6.2,8.4l-5.3,7.4h-2.2l6.2-8.4L349,105z M337.9,108.8L337.9,108.8c0,1.3,0.7,2.3,1.7,2.3c1.1,0,1.7-1,1.7-2.3v0
		c0-1.3-0.7-2.3-1.7-2.3C338.5,106.6,337.9,107.6,337.9,108.8z M345.4,117L345.4,117c0-2.3,1.5-4.1,3.7-4.1c2.2,0,3.7,1.8,3.7,4v0
		c0,2.2-1.5,4-3.7,4C346.9,121,345.4,119.2,345.4,117z M350.8,117L350.8,117c0-1.3-0.7-2.3-1.7-2.3c-1.1,0-1.7,1-1.7,2.3v0
		c0,1.3,0.7,2.3,1.7,2.3C350.2,119.3,350.8,118.2,350.8,117z"/>
</g>
<g>
	<path d="M379.1,49.6h-7.9v-2.4h11.1v2.1L375.1,63H372L379.1,49.6z"/>
	<path d="M385.8,51.1L385.8,51.1c0-2.3,1.5-4.1,3.7-4.1s3.7,1.8,3.7,4v0c0,2.2-1.5,4-3.7,4C387.3,55.1,385.8,53.2,385.8,51.1z
		 M399,47.2h2.2l-6.2,8.4l-5.3,7.4h-2.2l6.2-8.4L399,47.2z M387.8,51L387.8,51c0,1.3,0.7,2.3,1.7,2.3c1.1,0,1.7-1,1.7-2.3v0
		c0-1.3-0.7-2.3-1.7-2.3C388.5,48.7,387.8,49.8,387.8,51z M395.4,59.2L395.4,59.2c0-2.3,1.5-4.1,3.7-4.1c2.2,0,3.7,1.8,3.7,4v0
		c0,2.2-1.5,4-3.7,4C396.9,63.1,395.4,61.3,395.4,59.2z M400.8,59.2L400.8,59.2c0-1.3-0.7-2.3-1.7-2.3c-1.1,0-1.7,1-1.7,2.3v0
		c0,1.3,0.7,2.3,1.7,2.3C400.2,61.4,400.8,60.4,400.8,59.2z"/>
</g>
</svg>
