<?xml version="1.0" standalone="no"?>
<!DOCTYPE svg PUBLIC "-//W3C//DTD SVG 20010904//EN"
 "http://www.w3.org/TR/2001/REC-SVG-20010904/DTD/svg10.dtd">
<svg version="1.0" xmlns="http://www.w3.org/2000/svg"
 width="64.000000pt" height="64.000000pt" viewBox="0 0 64.000000 64.000000"
 preserveAspectRatio="xMidYMid meet">

<g transform="translate(0.000000,64.000000) scale(0.100000,-0.100000)"
fill="#000000" stroke="none">
<path d="M172 591 c-54 -19 -91 -45 -79 -57 3 -3 17 3 32 14 42 33 118 47 183
32 74 -16 152 -91 170 -162 22 -85 17 -103 -29 -126 -41 -20 -41 -20 -73 -1
-25 15 -50 19 -126 19 -111 0 -132 -10 -161 -74 l-18 -41 -27 59 c-22 49 -26
68 -21 117 3 33 15 75 28 98 25 46 20 67 -6 27 -134 -204 66 -462 294 -381 32
11 41 11 41 1 0 -19 51 -64 87 -76 75 -27 173 43 173 123 0 37 -20 87 -35 87
-11 0 -10 -6 2 -31 30 -59 2 -128 -64 -155 -74 -32 -153 25 -153 109 0 31 7
46 35 74 35 35 37 36 98 30 55 -5 60 -4 43 9 -11 8 -28 14 -38 14 -14 0 -18 8
-18 38 0 117 -77 225 -181 256 -67 20 -91 20 -157 -3z m197 -317 c17 -12 21
-22 16 -38 -4 -11 -10 -37 -14 -56 -5 -29 -13 -37 -41 -47 -59 -20 -121 -16
-178 13 -45 22 -52 30 -52 56 0 19 10 40 29 59 28 28 33 29 123 29 70 0 99 -4
117 -16z"/>
<path d="M191 514 c-38 -32 -49 -80 -27 -122 20 -39 44 -52 93 -52 94 0 134
114 61 175 -39 33 -87 33 -127 -1z m123 -25 c30 -35 32 -49 11 -88 -33 -65
-134 -52 -150 18 -18 85 84 136 139 70z"/>
<path d="M474 230 c-5 -23 -12 -30 -30 -30 -20 0 -24 -5 -24 -30 0 -25 4 -30
24 -30 19 0 25 -6 28 -27 2 -22 9 -29 31 -31 24 -3 27 0 27 27 0 28 3 31 30
31 27 0 30 3 30 30 0 27 -3 30 -30 30 -27 0 -30 3 -30 30 0 25 -4 30 -25 30
-20 0 -27 -6 -31 -30z m67 -50 c37 0 38 -18 2 -22 -22 -2 -29 -10 -34 -33 l-6
-30 -4 30 c-3 24 -9 31 -31 33 -36 4 -36 20 0 24 21 2 28 9 32 33 l4 30 4 -32
c3 -29 7 -33 33 -33z"/>
</g>
</svg>
