<?xml version="1.0" standalone="no"?>
<!DOCTYPE svg PUBLIC "-//W3C//DTD SVG 20010904//EN"
 "http://www.w3.org/TR/2001/REC-SVG-20010904/DTD/svg10.dtd">
<svg version="1.0" xmlns="http://www.w3.org/2000/svg"
 width="64.000000pt" height="64.000000pt" viewBox="0 0 64.000000 64.000000"
 preserveAspectRatio="xMidYMid meet">

<g transform="translate(0.000000,64.000000) scale(0.100000,-0.100000)"
fill="#000000" stroke="none">
<path d="M72 608 c-8 -8 -12 -45 -12 -100 0 -75 -3 -91 -20 -108 -16 -16 -20
-33 -20 -84 0 -36 5 -77 12 -93 7 -15 12 -66 12 -113 l1 -85 95 0 95 0 1 65
c2 120 -4 110 68 110 41 0 68 -5 73 -12 4 -7 8 -42 8 -78 l0 -65 95 0 95 0 3
44 c2 24 -1 48 -6 53 -15 15 -3 45 24 63 24 15 24 16 24 203 0 133 -4 192 -12
200 -17 17 -519 17 -536 0z m526 -188 c1 -96 -1 -181 -5 -190 -5 -8 -10 66
-13 165 l-5 180 -235 0 -235 0 -3 -97 c-1 -54 -7 -98 -12 -98 -11 0 -14 203
-3 214 4 3 119 5 257 4 l251 -3 3 -175z m-38 20 c0 -108 -7 -139 -24 -111 -3
5 -22 12 -41 15 -51 10 -47 36 5 36 22 0 40 5 40 10 0 6 -18 10 -40 10 -33 0
-40 3 -40 20 0 23 4 24 29 8 24 -15 51 -4 51 22 0 26 -27 37 -51 22 -10 -7
-57 -12 -104 -12 -50 0 -85 -4 -85 -10 0 -5 23 -10 50 -10 43 0 50 -3 50 -20
0 -23 -3 -24 -30 -8 -15 10 -24 9 -44 -2 -14 -7 -26 -16 -26 -20 0 -4 12 -13
26 -20 20 -11 29 -12 44 -2 28 17 30 16 30 -25 0 -29 -3 -34 -12 -25 -17 17
-55 15 -62 -4 -3 -8 -1 -24 4 -35 10 -18 6 -19 -78 -19 -100 0 -112 7 -112 61
0 21 -4 41 -10 44 -6 3 -10 48 -10 101 l0 94 220 0 220 0 0 -120z m-40 10 c0
-5 -4 -10 -10 -10 -5 0 -10 5 -10 10 0 6 5 10 10 10 6 0 10 -4 10 -10z m-80
-95 c0 -50 4 -85 10 -85 6 0 10 14 10 30 0 17 5 30 10 30 6 0 10 -13 10 -30 0
-16 5 -30 10 -30 6 0 10 11 10 25 0 14 5 25 10 25 6 0 10 -11 10 -25 0 -14 5
-25 10 -25 6 0 10 7 10 15 0 8 5 15 10 15 13 0 13 -91 0 -124 -9 -24 -14 -26
-73 -26 l-63 0 -37 75 c-42 86 -42 85 -23 85 8 0 23 -13 33 -30 9 -16 21 -30
25 -30 4 0 8 43 8 95 0 57 4 95 10 95 6 0 10 -35 10 -85z m-80 35 c0 -5 -4
-10 -10 -10 -5 0 -10 5 -10 10 0 6 5 10 10 10 6 0 10 -4 10 -10z m-290 -120
c5 0 10 19 12 43 4 57 32 59 36 3 2 -22 12 -51 23 -64 10 -14 19 -35 19 -48 0
-13 5 -24 10 -24 6 0 10 5 10 10 0 6 9 10 20 10 23 0 24 -8 10 -44 -9 -24 -14
-26 -72 -26 l-63 0 -14 53 c-19 69 -25 151 -15 185 7 22 9 15 12 -35 2 -35 7
-63 12 -63z m285 -40 c4 -6 -27 -10 -84 -10 -54 0 -91 4 -91 10 0 6 35 10 84
10 47 0 88 -4 91 -10z m205 -135 l0 -35 -80 0 -80 0 0 35 0 35 80 0 80 0 0
-35z m-340 -20 l0 -35 -80 0 -80 0 0 35 0 35 80 0 80 0 0 -35z"/>
<path d="M316 525 c-20 -15 -20 -15 0 -30 22 -17 50 -19 59 -5 3 6 42 10 86
10 46 0 79 4 79 10 0 6 -33 10 -79 10 -44 0 -83 5 -86 10 -9 14 -37 12 -59 -5z
m44 -15 c0 -5 -4 -10 -10 -10 -5 0 -10 5 -10 10 0 6 5 10 10 10 6 0 10 -4 10
-10z"/>
<path d="M170 500 c-27 -23 -32 -32 -21 -39 8 -5 11 -16 6 -30 -6 -20 -3 -21
55 -21 58 0 61 1 55 21 -5 14 -2 25 6 30 11 7 6 16 -21 39 -19 16 -37 29 -40
29 -3 0 -21 -13 -40 -29z m54 -6 c18 -7 23 -64 6 -64 -5 0 -10 7 -10 15 0 8
-4 15 -10 15 -5 0 -10 -7 -10 -15 0 -8 -4 -15 -10 -15 -15 0 -12 57 3 63 6 3
13 6 14 6 1 1 8 -2 17 -5z"/>
<path d="M420 90 c0 -5 5 -10 10 -10 6 0 10 5 10 10 0 6 -4 10 -10 10 -5 0
-10 -4 -10 -10z"/>
<path d="M80 70 c0 -5 5 -10 10 -10 6 0 10 5 10 10 0 6 -4 10 -10 10 -5 0 -10
-4 -10 -10z"/>
</g>
</svg>
