<?xml version="1.0" standalone="no"?>
<!DOCTYPE svg PUBLIC "-//W3C//DTD SVG 20010904//EN"
 "http://www.w3.org/TR/2001/REC-SVG-20010904/DTD/svg10.dtd">
<svg version="1.0" xmlns="http://www.w3.org/2000/svg"
 width="64.000000pt" height="64.000000pt" viewBox="0 0 64.000000 64.000000"
 preserveAspectRatio="xMidYMid meet">

<g transform="translate(0.000000,64.000000) scale(0.100000,-0.100000)"
fill="#000000" stroke="none">
<path d="M142 611 c-13 -37 -46 -67 -83 -75 l-29 -5 0 -80 c0 -44 4 -83 10
-86 6 -4 10 23 10 74 0 76 1 81 21 81 25 0 89 61 89 84 0 14 20 16 160 16 140
0 160 -2 160 -16 0 -23 64 -84 89 -84 20 0 21 -5 21 -81 0 -51 4 -78 10 -74 5
3 10 42 10 86 l0 80 -29 5 c-37 8 -70 38 -83 75 l-10 29 -168 0 -168 0 -10
-29z"/>
<path d="M161 559 c-18 -22 -44 -45 -57 -51 -14 -7 -27 -23 -31 -36 -10 -40
14 -168 43 -223 32 -64 104 -142 161 -176 l43 -25 43 25 c56 33 129 112 160
174 44 85 60 222 30 245 -9 7 -38 34 -65 61 l-48 47 -123 0 -122 0 -34 -41z
m284 -21 c24 -24 53 -51 65 -61 20 -17 21 -24 14 -85 -13 -128 -73 -236 -161
-292 l-44 -28 -34 20 c-19 11 -59 46 -89 78 -61 67 -90 131 -100 227 l-7 63
58 59 58 59 99 1 99 1 42 -42z"/>
<path d="M278 535 c-35 -19 -48 -44 -48 -89 0 -29 -4 -36 -20 -36 -19 0 -20
-7 -20 -89 0 -72 3 -90 16 -95 9 -3 65 -6 124 -6 128 0 130 1 130 104 0 62
-14 96 -41 96 -5 0 -9 15 -9 34 0 69 -74 113 -132 81z m85 -28 c10 -6 20 -28
23 -48 l6 -36 -53 -6 c-89 -11 -89 -11 -89 28 0 61 66 97 113 62z"/>
<path d="M45 303 c25 -100 133 -233 228 -282 l47 -24 47 24 c65 33 163 133
195 199 33 70 44 110 29 110 -6 0 -11 -6 -11 -14 0 -7 -16 -45 -35 -84 -38
-76 -117 -157 -186 -193 -39 -19 -39 -19 -78 0 -69 36 -148 117 -186 193 -19
39 -35 77 -35 84 0 8 -5 14 -11 14 -7 0 -9 -10 -4 -27z"/>
</g>
</svg>
