<svg version="1.1" id="Layer_1" xmlns="http://www.w3.org/2000/svg" xmlns:xlink="http://www.w3.org/1999/xlink" x="0px" y="0px"
	 width="100%" viewBox="0 0 64 64" enable-background="new 0 0 64 64" xml:space="preserve">
<path fill="#011839" opacity="1.000000" stroke="none" 
	d="
M45.000000,1.000000 
	C45.750000,1.000000 46.500000,1.000000 47.594650,1.367599 
	C46.929710,4.462700 45.920120,7.190201 44.767281,10.304702 
	C46.939007,11.199924 48.817707,12.328518 50.841686,12.736604 
	C55.367836,13.649192 57.387115,16.314785 58.250916,20.752092 
	C59.320110,26.244497 60.972507,31.632767 62.575294,37.005661 
	C63.006069,38.449711 64.171700,39.674538 65.000000,41.000000 
	C65.000000,44.361286 65.000000,47.722576 64.604889,51.551620 
	C61.177654,52.824471 58.165203,53.715298 55.109257,54.416607 
	C48.947277,55.830711 42.761642,57.141743 36.585770,58.495293 
	C36.343864,58.035889 36.101963,57.576488 35.860058,57.117085 
	C34.573372,59.744724 33.286686,62.372364 32.000000,65.000000 
	C29.629442,65.000000 27.258884,65.000000 24.352123,64.673584 
	C16.210615,59.898117 8.605308,55.449059 1.000000,51.000000 
	C1.000000,48.629444 1.000000,46.258884 1.324929,43.348183 
	C6.613719,34.774025 12.160266,27.030844 16.360449,18.615662 
	C19.835014,11.654278 24.012543,8.292871 32.125664,8.691355 
	C37.335308,8.947232 44.043785,9.067022 45.000000,1.000000 
M16.386646,26.183331 
	C15.569450,27.438745 14.752254,28.694160 13.559443,30.484997 
	C13.381094,31.329071 13.202744,32.173145 12.387192,33.183556 
	C11.569346,34.438480 10.751500,35.693401 9.551291,37.481476 
	C9.375509,38.326839 9.199727,39.172199 8.375506,40.195641 
	C7.618676,41.042618 6.843510,41.874020 6.108261,42.739334 
	C3.271638,46.077759 3.223923,48.404884 7.782949,50.601753 
	C13.566498,53.388687 18.896915,57.100578 24.528107,60.223606 
	C29.702526,63.093315 29.764099,62.982292 32.450890,56.519695 
	C32.626888,55.674793 32.802887,54.829895 33.615486,53.817223 
	C34.432121,52.561741 35.248756,51.306259 36.440842,49.515339 
	C36.619370,48.671391 36.797897,47.827442 37.613499,46.816723 
	C38.430813,45.561420 39.248131,44.306118 40.448189,42.518135 
	C40.624310,41.673042 40.800426,40.827946 41.630672,39.800632 
	C50.287491,30.431095 50.408283,22.254129 41.602932,13.895924 
	C40.936413,15.550625 40.015316,16.975943 39.807987,18.498457 
	C38.814095,25.797035 38.882713,25.806379 31.981155,25.264572 
	C30.938990,21.400738 30.986578,18.231859 35.679100,16.530107 
	C37.207115,15.975969 38.102203,13.676545 39.620258,11.752741 
	C26.836010,9.787212 21.940559,12.501806 17.551077,23.481220 
	C17.375305,24.326355 17.199533,25.171492 16.386646,26.183331 
M49.592789,20.190613 
	C55.741009,29.338926 46.998001,35.472988 44.445637,43.772324 
	C48.754032,42.679867 52.390312,41.756981 56.027073,40.835964 
	C58.947205,40.096428 60.134308,38.586193 59.126316,35.394585 
	C57.626186,30.644735 56.328438,25.816282 55.243828,20.954515 
	C54.370777,17.041077 52.056786,15.573792 47.797146,15.533541 
	C48.389080,17.167479 48.822887,18.364933 49.592789,20.190613 
M39.679306,53.908825 
	C40.096741,54.157253 40.582607,54.692547 40.921486,54.611694 
	C47.494667,53.043537 54.079994,51.505268 60.569813,49.637657 
	C61.307575,49.425346 62.204124,46.852047 61.769634,46.126392 
	C61.021122,44.876289 59.087490,43.254673 57.994728,43.477051 
	C52.991741,44.495140 47.952221,45.726273 43.261742,47.685223 
	C41.500576,48.420761 40.649586,51.335629 39.679306,53.908825 
z"/>
<path fill="#000000" opacity="1.000000" stroke="none" 
	d="
M44.531342,1.000000 
	C44.043785,9.067022 37.335308,8.947232 32.125664,8.691355 
	C24.012543,8.292871 19.835014,11.654278 16.360449,18.615662 
	C12.160266,27.030844 6.613719,34.774025 1.324929,42.904022 
	C1.000000,29.071608 1.000000,15.143214 1.000000,1.000000 
	C15.353514,1.000000 29.708099,1.000000 44.531342,1.000000 
z"/>
<path fill="#000000" opacity="1.000000" stroke="none" 
	d="
M65.000000,40.531342 
	C64.171700,39.674538 63.006069,38.449711 62.575294,37.005661 
	C60.972507,31.632767 59.320110,26.244497 58.250916,20.752092 
	C57.387115,16.314785 55.367836,13.649192 50.841686,12.736604 
	C48.817707,12.328518 46.939007,11.199924 44.767281,10.304702 
	C45.920120,7.190201 46.929710,4.462700 47.969650,1.367599 
	C53.622807,1.000000 59.245609,1.000000 65.000000,1.000000 
	C65.000000,14.020648 65.000000,27.041666 65.000000,40.531342 
z"/>
<path fill="#000000" opacity="1.000000" stroke="none" 
	d="
M32.468658,65.000000 
	C33.286686,62.372364 34.573372,59.744724 35.860058,57.117085 
	C36.101963,57.576488 36.343864,58.035889 36.585770,58.495293 
	C42.761642,57.141743 48.947277,55.830711 55.109257,54.416607 
	C58.165203,53.715298 61.177654,52.824471 64.604889,52.009689 
	C65.000000,56.291683 65.000000,60.583370 65.000000,65.000000 
	C54.312698,65.000000 43.625008,65.000000 32.468658,65.000000 
z"/>
<path fill="#000000" opacity="1.000000" stroke="none" 
	d="
M1.000000,51.474129 
	C8.605308,55.449059 16.210615,59.898117 23.907961,64.673584 
	C16.427488,65.000000 8.854976,65.000000 1.000000,65.000000 
	C1.000000,60.653427 1.000000,56.300842 1.000000,51.474129 
z"/>
<path fill="#000000" opacity="1.000000" stroke="none" 
	d="
M49.424740,19.876499 
	C48.822887,18.364933 48.389080,17.167479 47.797146,15.533541 
	C52.056786,15.573792 54.370777,17.041077 55.243828,20.954515 
	C56.328438,25.816282 57.626186,30.644735 59.126316,35.394585 
	C60.134308,38.586193 58.947205,40.096428 56.027073,40.835964 
	C52.390312,41.756981 48.754032,42.679867 44.445637,43.772324 
	C46.998001,35.472988 55.741009,29.338926 49.424740,19.876499 
z"/>
<path fill="#000000" opacity="1.000000" stroke="none" 
	d="
M31.981808,26.023523 
	C38.882713,25.806379 38.814095,25.797035 39.807987,18.498457 
	C40.015316,16.975943 40.936413,15.550625 41.602932,13.895924 
	C50.408283,22.254129 50.287491,30.431095 41.289246,39.877548 
	C40.947819,39.954468 40.918640,39.926529 40.962753,39.564499 
	C43.746151,34.870762 42.895699,31.875921 37.955761,29.908258 
	C35.782604,29.042652 33.926289,27.381584 31.940039,26.067139 
	C31.953962,26.052597 31.981808,26.023523 31.981808,26.023523 
z"/>
<path fill="#000000" opacity="1.000000" stroke="none" 
	d="
M17.933401,22.948221 
	C21.940559,12.501806 26.836010,9.787212 39.620258,11.752741 
	C38.102203,13.676545 37.207115,15.975969 35.679100,16.530107 
	C30.986578,18.231859 30.938990,21.400738 31.981482,25.644047 
	C31.981808,26.023523 31.953962,26.052597 31.578472,26.022673 
	C27.190561,24.422253 23.858664,19.234936 18.524267,23.470118 
	C18.196083,23.180092 18.064743,23.064157 17.933401,22.948221 
z"/>
<path fill="#000000" opacity="1.000000" stroke="none" 
	d="
M39.531471,53.582870 
	C40.649586,51.335629 41.500576,48.420761 43.261742,47.685223 
	C47.952221,45.726273 52.991741,44.495140 57.994728,43.477051 
	C59.087490,43.254673 61.021122,44.876289 61.769634,46.126392 
	C62.204124,46.852047 61.307575,49.425346 60.569813,49.637657 
	C54.079994,51.505268 47.494667,53.043537 40.921486,54.611694 
	C40.582607,54.692547 40.096741,54.157253 39.531471,53.582870 
z"/>
<path fill="#000000" opacity="1.000000" stroke="none" 
	d="
M32.065582,57.050991 
	C29.764099,62.982292 29.702526,63.093315 24.528107,60.223606 
	C18.896915,57.100578 13.566498,53.388687 7.782949,50.601753 
	C3.223923,48.404884 3.271638,46.077759 6.108261,42.739334 
	C6.843510,41.874020 7.618676,41.042618 8.714084,40.120796 
	C9.052661,40.045948 9.081839,40.073879 9.036329,40.442375 
	C6.293874,45.198490 6.624459,48.369057 11.961160,50.632942 
	C16.104931,52.390770 19.974272,54.897549 23.742460,57.406544 
	C26.776590,59.426773 29.119291,59.251701 31.475437,56.529655 
	C31.803223,56.819366 31.934402,56.935181 32.065582,57.050991 
z"/>
<path fill="#000000" opacity="1.000000" stroke="none" 
	d="
M40.065445,43.050816 
	C39.248131,44.306118 38.430813,45.561420 37.280731,46.885807 
	C36.947964,46.954891 36.918964,46.926819 36.960236,46.592293 
	C37.760277,44.957142 38.519051,43.656513 39.474651,42.529716 
	C39.802799,42.819298 39.934124,42.935059 40.065445,43.050816 
z"/>
<path fill="#000000" opacity="1.000000" stroke="none" 
	d="
M9.933653,36.948322 
	C10.751500,35.693401 11.569346,34.438480 12.719990,33.114670 
	C13.052789,33.045780 13.081743,33.073795 13.040480,33.408447 
	C12.238461,35.042839 11.477708,36.342579 10.521214,37.468727 
	C10.194865,37.179527 10.064260,37.063927 9.933653,36.948322 
z"/>
<path fill="#000000" opacity="1.000000" stroke="none" 
	d="
M36.065392,50.050777 
	C35.248756,51.306259 34.432121,52.561741 33.282890,53.887108 
	C32.950291,53.956989 32.921253,53.929417 32.962639,53.594749 
	C33.762218,51.958775 34.520409,50.657467 35.475216,49.529907 
	C35.803017,49.819363 35.934204,49.935070 36.065392,50.050777 
z"/>
<path fill="#000000" opacity="1.000000" stroke="none" 
	d="
M13.935061,29.949575 
	C14.752254,28.694160 15.569450,27.438745 16.720116,26.114697 
	C17.053587,26.046061 17.083879,26.075035 17.042423,26.409523 
	C16.241161,28.043982 15.481352,29.343952 14.525005,30.470242 
	C14.197332,30.180901 14.066196,30.065239 13.935061,29.949575 
z"/>
<path fill="#000000" opacity="1.000000" stroke="none" 
	d="
M9.038303,40.031754 
	C9.199727,39.172199 9.375509,38.326839 9.742472,37.214897 
	C10.064260,37.063927 10.194865,37.179527 10.326172,37.706493 
	C9.911861,38.769863 9.496850,39.421871 9.081839,40.073879 
	C9.081839,40.073879 9.052661,40.045948 9.038303,40.031754 
z"/>
<path fill="#000000" opacity="1.000000" stroke="none" 
	d="
M40.962181,39.968658 
	C40.800426,40.827946 40.624310,41.673042 40.256817,42.784477 
	C39.934124,42.935059 39.802799,42.819298 39.662560,42.286961 
	C40.075310,41.222431 40.496975,40.574478 40.918640,39.926529 
	C40.918640,39.926529 40.947819,39.954468 40.962181,39.968658 
z"/>
<path fill="#000000" opacity="1.000000" stroke="none" 
	d="
M36.962193,46.969193 
	C36.797897,47.827442 36.619370,48.671391 36.253117,49.783058 
	C35.934204,49.935070 35.803017,49.819363 35.664131,49.287849 
	C36.077278,48.223637 36.498123,47.575230 36.918968,46.926819 
	C36.918964,46.926819 36.947964,46.954891 36.962193,46.969193 
z"/>
<path fill="#000000" opacity="1.000000" stroke="none" 
	d="
M13.038591,33.031502 
	C13.202744,32.173145 13.381094,31.329071 13.747252,30.217285 
	C14.066196,30.065239 14.197332,30.180901 14.336214,30.712395 
	C13.923223,31.776751 13.502482,32.425274 13.081743,33.073795 
	C13.081743,33.073795 13.052789,33.045780 13.038591,33.031502 
z"/>
<path fill="#000000" opacity="1.000000" stroke="none" 
	d="
M32.964588,53.970993 
	C32.802887,54.829895 32.626888,55.674793 32.258236,56.785343 
	C31.934402,56.935181 31.803223,56.819366 31.664272,56.287621 
	C32.078087,55.224266 32.499672,54.576843 32.921253,53.929417 
	C32.921253,53.929417 32.950291,53.956989 32.964588,53.970993 
z"/>
<path fill="#000000" opacity="1.000000" stroke="none" 
	d="
M17.038673,26.031343 
	C17.199533,25.171492 17.375305,24.326355 17.742239,23.214722 
	C18.064743,23.064157 18.196083,23.180092 18.335373,23.712082 
	C17.923508,24.777103 17.503695,25.426069 17.083879,26.075035 
	C17.083879,26.075035 17.053587,26.046061 17.038673,26.031343 
z"/>
<path fill="#7738C8" opacity="1.000000" stroke="none" 
	d="
M17.042423,26.409523 
	C17.503695,25.426069 17.923508,24.777103 18.532217,23.886173 
	C23.858664,19.234936 27.190561,24.422253 31.564548,26.037214 
	C33.926289,27.381584 35.782604,29.042652 37.955761,29.908258 
	C42.895699,31.875921 43.746151,34.870762 40.962753,39.564499 
	C40.496975,40.574478 40.075310,41.222431 39.465736,42.113136 
	C38.519051,43.656513 37.760277,44.957142 36.960236,46.592293 
	C36.498123,47.575230 36.077278,48.223637 35.467522,49.114098 
	C34.520409,50.657467 33.762218,51.958775 32.962639,53.594749 
	C32.499672,54.576843 32.078087,55.224266 31.467669,56.113720 
	C29.119291,59.251701 26.776590,59.426773 23.742460,57.406544 
	C19.974272,54.897549 16.104931,52.390770 11.961160,50.632942 
	C6.624459,48.369057 6.293874,45.198490 9.036328,40.442375 
	C9.496850,39.421871 9.911861,38.769863 10.521914,37.880089 
	C11.477708,36.342579 12.238461,35.042839 13.040479,33.408447 
	C13.502482,32.425274 13.923223,31.776751 14.532753,30.886076 
	C15.481352,29.343952 16.241161,28.043982 17.042423,26.409523 
z"/>
</svg>